HIERARCHY
ROOT Hips
{
  OFFSET 5.80788e-005 67.184 3.4734
  CHANNELS 6 Xposition Yposition Zposition Zrotation Xrotation Yrotation
  JOINT Chest
  {
    OFFSET 0 8.7983 -4.7612
    CHANNELS 3 Zrotation Xrotation Yrotation
    JOINT Chest2
    {
      OFFSET 0 8.0291 0.4195
      CHANNELS 3 Zrotation Xrotation Yrotation
      JOINT Chest3
      {
        OFFSET 0 9.9351 -2.2114
        CHANNELS 3 Zrotation Xrotation Yrotation
        JOINT Neck
        {
          OFFSET 0 22.3885 -0.4656
          CHANNELS 3 Zrotation Xrotation Yrotation
          JOINT Head
          {
            OFFSET -0.0001 12.643 3.4389
            CHANNELS 3 Zrotation Xrotation Yrotation
            End Site
            {
              OFFSET 0.0001 17.6655 0.5274
            }
          }
        }
        JOINT LeftCollar
        {
          OFFSET 2.2603 21.606 7.4023
          CHANNELS 3 Zrotation Xrotation Yrotation
          JOINT LeftShoulder
          {
            OFFSET 13.5163 -1.1332 -5.0146
            CHANNELS 3 Zrotation Xrotation Yrotation
            JOINT LeftElbow
            {
              OFFSET -0.0995 -28.05 -0.2431
              CHANNELS 3 Zrotation Xrotation Yrotation
              JOINT LeftWrist
              {
                OFFSET 0.0679 -23.3996 -0.1402
                CHANNELS 3 Zrotation Xrotation Yrotation
                JOINT LeftFinger1
                {
                  OFFSET 0.7932 -9.069 2.5189
                  CHANNELS 3 Zrotation Xrotation Yrotation
                  JOINT LeftFinger11
                  {
                    OFFSET -0.8272 -3.3923 0.5977
                    CHANNELS 3 Zrotation Xrotation Yrotation
                    JOINT LeftFinger12
                    {
                      OFFSET -0.5649 -2.3158 0.4082
                      CHANNELS 3 Zrotation Xrotation Yrotation
                      End Site
                      {
                        OFFSET -0.4919 -1.6479 0.2673
                      }
                    }
                  }
                }
                JOINT LeftFinger2
                {
                  OFFSET 0.9159 -9.2044 0.2193
                  CHANNELS 3 Zrotation Xrotation Yrotation
                  JOINT LeftFinger21
                  {
                    OFFSET 0.0117 -4.1944 -0.0248
                    CHANNELS 3 Zrotation Xrotation Yrotation
                    JOINT LeftFinger22
                    {
                      OFFSET 0.0071 -2.3249 -0.0142
                      CHANNELS 3 Zrotation Xrotation Yrotation
                      End Site
                      {
                        OFFSET -0.1475 -2.0882 0.0028
                      }
                    }
                  }
                }
                JOINT LeftFinger3
                {
                  OFFSET 0.6113 -8.7231 -2.0637
                  CHANNELS 3 Zrotation Xrotation Yrotation
                  JOINT LeftFinger31
                  {
                    OFFSET -0.1927 -3.8059 -0.2383
                    CHANNELS 3 Zrotation Xrotation Yrotation
                    JOINT LeftFinger32
                    {
                      OFFSET -0.1091 -2.1688 -0.1362
                      CHANNELS 3 Zrotation Xrotation Yrotation
                      End Site
                      {
                        OFFSET -0.2358 -1.9176 -0.0906
                      }
                    }
                  }
                }
                JOINT LeftFinger4
                {
                  OFFSET -0.6151 -8.0947 -3.5641
                  CHANNELS 3 Zrotation Xrotation Yrotation
                  JOINT LeftFinger41
                  {
                    OFFSET -0.4882 -2.341 -0.6462
                    CHANNELS 3 Zrotation Xrotation Yrotation
                    JOINT LeftFinger42
                    {
                      OFFSET -0.3575 -1.7167 -0.4742
                      CHANNELS 3 Zrotation Xrotation Yrotation
                      End Site
                      {
                        OFFSET -0.4187 -1.5237 -0.3496
                      }
                    }
                  }
                }
                JOINT LeftFinger0
                {
                  OFFSET -1.42 -1.8761 1.4223
                  CHANNELS 3 Zrotation Xrotation Yrotation
                  JOINT LeftFinger01
                  {
                    OFFSET -1.1471 -3.4929 2.6334
                    CHANNELS 3 Zrotation Xrotation Yrotation
                    JOINT LeftFinger02
                    {
                      OFFSET -0.823 -2.3 1.6571
                      CHANNELS 3 Zrotation Xrotation Yrotation
                      End Site
                      {
                        OFFSET -0.5822 -1.6914 1.1582
                      }
                    }
                  }
                }
              }
            }
          }
        }
        JOINT RightCollar
        {
          OFFSET -2.2603 21.606 7.4023
          CHANNELS 3 Zrotation Xrotation Yrotation
          JOINT RightShoulder
          {
            OFFSET -13.5187 -1.1334 -5.0155
            CHANNELS 3 Zrotation Xrotation Yrotation
            JOINT RightElbow
            {
              OFFSET 0.0994 -28.0499 -0.2431
              CHANNELS 3 Zrotation Xrotation Yrotation
              JOINT RightWrist
              {
                OFFSET -0.0679 -23.3996 -0.1402
                CHANNELS 3 Zrotation Xrotation Yrotation
                JOINT RightFinger1
                {
                  OFFSET -0.7932 -9.0691 2.5189
                  CHANNELS 3 Zrotation Xrotation Yrotation
                  JOINT RightFinger11
                  {
                    OFFSET 0.8272 -3.3923 0.5977
                    CHANNELS 3 Zrotation Xrotation Yrotation
                    JOINT RightFinger12
                    {
                      OFFSET 0.565 -2.3158 0.4082
                      CHANNELS 3 Zrotation Xrotation Yrotation
                      End Site
                      {
                        OFFSET 0.4919 -1.6479 0.2673
                      }
                    }
                  }
                }
                JOINT RightFinger2
                {
                  OFFSET -0.916 -9.2044 0.2193
                  CHANNELS 3 Zrotation Xrotation Yrotation
                  JOINT RightFinger21
                  {
                    OFFSET -0.0117 -4.1944 -0.0248
                    CHANNELS 3 Zrotation Xrotation Yrotation
                    JOINT RightFinger22
                    {
                      OFFSET -0.0071 -2.3249 -0.0142
                      CHANNELS 3 Zrotation Xrotation Yrotation
                      End Site
                      {
                        OFFSET 0.1475 -2.0882 0.0028
                      }
                    }
                  }
                }
                JOINT RightFinger3
                {
                  OFFSET -0.6113 -8.7231 -2.0637
                  CHANNELS 3 Zrotation Xrotation Yrotation
                  JOINT RightFinger31
                  {
                    OFFSET 0.1927 -3.8059 -0.2383
                    CHANNELS 3 Zrotation Xrotation Yrotation
                    JOINT RightFinger32
                    {
                      OFFSET 0.1091 -2.1688 -0.1362
                      CHANNELS 3 Zrotation Xrotation Yrotation
                      End Site
                      {
                        OFFSET 0.2358 -1.9176 -0.0906
                      }
                    }
                  }
                }
                JOINT RightFinger4
                {
                  OFFSET 0.6151 -8.0947 -3.564
                  CHANNELS 3 Zrotation Xrotation Yrotation
                  JOINT RightFinger41
                  {
                    OFFSET 0.4882 -2.341 -0.6462
                    CHANNELS 3 Zrotation Xrotation Yrotation
                    JOINT RightFinger42
                    {
                      OFFSET 0.3574 -1.7166 -0.4742
                      CHANNELS 3 Zrotation Xrotation Yrotation
                      End Site
                      {
                        OFFSET 0.4187 -1.5237 -0.3496
                      }
                    }
                  }
                }
                JOINT RightFinger0
                {
                  OFFSET 1.4199 -1.8761 1.4221
                  CHANNELS 3 Zrotation Xrotation Yrotation
                  JOINT RightFinger01
                  {
                    OFFSET 1.1472 -3.4929 2.6336
                    CHANNELS 3 Zrotation Xrotation Yrotation
                    JOINT RightFinger02
                    {
                      OFFSET 0.8229 -2.3 1.6571
                      CHANNELS 3 Zrotation Xrotation Yrotation
                      End Site
                      {
                        OFFSET 0.5822 -1.6914 1.1582
                      }
                    }
                  }
                }
              }
            }
          }
        }
      }
    }
  }
  JOINT RightHip
  {
    OFFSET -9.412 3.9771 -0.7758
    CHANNELS 3 Zrotation Xrotation Yrotation
    JOINT RightKnee
    {
      OFFSET -0.7531 -40.938 0
      CHANNELS 3 Zrotation Xrotation Yrotation
      JOINT RightAnkle
      {
        OFFSET 0 -40.1986 0
        CHANNELS 3 Zrotation Xrotation Yrotation
        JOINT RightToe
        {
          OFFSET 0 -4.4182 9.239
          CHANNELS 3 Zrotation Xrotation Yrotation
          End Site
          {
            OFFSET 0 0 6.1981
          }
        }
      }
    }
  }
  JOINT LeftHip
  {
    OFFSET 9.4119 3.9773 -0.7758
    CHANNELS 3 Zrotation Xrotation Yrotation
    JOINT LeftKnee
    {
      OFFSET 0.7532 -40.9383 0
      CHANNELS 3 Zrotation Xrotation Yrotation
      JOINT LeftAnkle
      {
        OFFSET 0 -40.1986 0
        CHANNELS 3 Zrotation Xrotation Yrotation
        JOINT LeftToe
        {
          OFFSET 0 -4.4182 9.239
          CHANNELS 3 Zrotation Xrotation Yrotation
          End Site
          {
            OFFSET 0 0 6.1981
          }
        }
      }
    }
  }
}
MOTION
Frames:	6
Frame Time:	0.0333333
39.8357 20.0494 3.69415 0.215919 -51.9965 -179.545 -0.218645 12.1019 -0.094064 -0.431417 24.2043 -0.144644 -0.431416 24.2042 -0.144644 10.1081 -8.45596 1.49998 2.80647e-006 -2.91643 -1.04297e-006 5.86736 -25.7929 -43.0982 92.3756 -26.2728 13.8301 5.04129 -9.77718 12.0479 58.4726 -5.02705 16.4936 6.36111e-015 0 -1.51076e-014 1.59028e-015 0 -1.59028e-014 3.49744e-006 1.1569e-005 6.96365e-006 6.36111e-015 0 -1.51076e-014 -0.0128464 0.00232871 8.66563e-005 -1.31365e-006 -7.25782e-006 -5.04533e-006 6.36111e-015 0 -1.51076e-014 -0.0160317 0.00298856 0.000866884 -3.53113e-031 -1.27222e-014 -1.59028e-015 6.36111e-015 0 -1.51076e-014 -0.0126089 0.00312501 0.00282677 3.18055e-015 -3.18055e-015 1.59028e-015 6.36111e-015 0 -1.51076e-014 1.59028e-015 0 -1.59028e-014 3.49744e-006 1.1569e-005 6.96365e-006 -3.97518 -25.3187 30.6418 -94.211 -45.4509 -14.9152 -8.31744 -11.8561 -12.8467 -58.5708 -0.173781 -8.39105 3.18055e-015 -6.36111e-015 3.97569e-016 1.59028e-015 0 4.77083e-015 8.82781e-032 -3.18055e-015 1.59028e-015 3.18055e-015 -6.36111e-015 3.97569e-016 0.012956 0.00231458 -7.64707e-005 -3.18055e-015 -6.36111e-015 -0 3.18055e-015 -6.36111e-015 3.97569e-016 0.0163231 0.00302756 -0.000865557 1.35435e-006 1.14923e-007 2.47076e-006 3.18055e-015 -6.36111e-015 3.97569e-016 0.0145583 0.00368269 -0.00325545 4.28743e-006 -2.02982e-006 -4.01063e-006 3.18055e-015 -6.36111e-015 3.97569e-016 1.59028e-015 0 4.77083e-015 8.82781e-032 -3.18055e-015 1.59028e-015 -140.878 -21.2832 -170.033 -133.694 69.3735 132.248 -15.328 -4.27745 -4.34872 1.63176e-006 -1.5065e-007 -1.02866e-008 140.888 -21.2999 170.024 133.761 69.3771 -132.322 15.3154 -4.28712 4.33788 -2.80432e-006 5.82204e-006 -7.40551e-006 
39.8357 20.0494 3.61486 0.215918 -51.9965 -179.545 -0.218486 12.112 -0.0942723 -0.431046 24.2244 -0.145076 -0.431045 24.2243 -0.145076 10.1422 -9.65167 1.71627 3.86579e-006 -3.77485 7.05597e-007 5.99211 -25.8246 -43.9752 92.3007 -25.3369 13.8555 4.81117 -9.55328 12.0233 58.6992 -5.17135 16.7284 1.67107e-006 4.11087e-006 -6.86247e-006 -3.18055e-015 -6.36111e-015 5.56597e-015 -1.67107e-006 -4.11087e-006 6.86247e-006 1.67107e-006 4.11087e-006 -6.86247e-006 -0.0128585 0.00232424 8.29351e-005 -2.2876e-006 -3.93906e-006 -4.23674e-006 1.67107e-006 4.11087e-006 -6.86247e-006 -0.0160236 0.00297417 0.000854777 -1.57796e-006 2.44933e-006 -5.54971e-007 1.67107e-006 4.11087e-006 -6.86247e-006 -0.0125954 0.00312458 0.00283779 -2.18201e-006 -1.91279e-006 -1.91871e-006 1.67107e-006 4.11087e-006 -6.86247e-006 -3.18055e-015 -6.36111e-015 5.56597e-015 -1.67107e-006 -4.11087e-006 6.86247e-006 -4.07008 -25.2877 31.3376 -94.1211 -44.8277 -14.8801 -8.24131 -11.5234 -12.8356 -58.7026 -0.321813 -8.61588 -3.18055e-015 3.18055e-015 7.15625e-015 1.59028e-015 6.36111e-015 1.03368e-014 1.59028e-015 0 1.51076e-014 -3.18055e-015 3.18055e-015 7.15625e-015 0.0129488 0.00233196 -9.95902e-005 1.59028e-015 3.18055e-015 4.37326e-015 -3.18055e-015 3.18055e-015 7.15625e-015 0.016357 0.00303328 -0.000877513 -1.59028e-015 0 -0 -3.18055e-015 3.18055e-015 7.15625e-015 0.0145286 0.00365969 -0.00325555 3.18055e-015 0 3.57812e-015 -3.18055e-015 3.18055e-015 7.15625e-015 1.59028e-015 6.36111e-015 1.03368e-014 1.59028e-015 0 1.51076e-014 -140.879 -21.2832 -170.034 -133.671 69.3807 132.228 -15.3144 -4.4174 -4.29949 1.81577e-006 1.09625e-006 4.78987e-006 140.89 -21.2999 170.025 133.739 69.3843 -132.302 15.3013 -4.4275 4.28827 -3.88062e-006 -9.07715e-007 2.6677e-006 
39.8357 20.0494 3.53556 0.215919 -51.9965 -179.545 -0.218334 12.1221 -0.0944798 -0.430689 24.2445 -0.145504 -0.430689 24.2444 -0.145504 10.181 -10.8487 1.93438 -4.9875e-008 -4.63375 4.19528e-007 6.11631 -25.8581 -44.8523 92.2258 -24.4013 13.8821 4.58132 -9.32939 11.9995 58.9263 -5.31477 16.9638 9.99577e-006 1.63582e-006 -5.65146e-006 -2.55129e-006 2.85483e-006 2.53748e-007 -7.78574e-006 1.31362e-007 -4.5623e-007 9.99577e-006 1.63582e-006 -5.65146e-006 -0.0128119 0.00233103 9.52325e-005 -6.31195e-006 5.87007e-006 -2.21983e-006 9.99577e-006 1.63582e-006 -5.65146e-006 -0.016059 0.0030078 0.000858895 -9.28727e-006 4.77083e-006 9.33277e-006 9.99577e-006 1.63582e-006 -5.65146e-006 -0.0125798 0.00312171 0.0028232 -1.12994e-005 1.01343e-005 1.03412e-005 9.99577e-006 1.63582e-006 -5.65146e-006 -2.55129e-006 2.85483e-006 2.53748e-007 -7.78574e-006 1.31362e-007 -4.5623e-007 -4.16534 -25.2579 32.0333 -94.0328 -44.2045 -14.8467 -8.1653 -11.1905 -12.825 -58.8349 -0.46927 -8.84108 2.96347e-006 1.52089e-006 5.48125e-006 0 0 -4.37326e-015 -2.96347e-006 -1.52089e-006 -5.48125e-006 2.96347e-006 1.52089e-006 5.48125e-006 0.0129163 0.00230422 -8.37087e-005 6.99839e-007 -6.07793e-006 3.705e-006 2.96347e-006 1.52089e-006 5.48125e-006 0.0163391 0.00303483 -0.000875397 -0 0 1.59028e-015 2.96347e-006 1.52089e-006 5.48125e-006 0.0145208 0.00365442 -0.00324887 -3.18055e-015 -6.36111e-015 -2.38542e-015 2.96347e-006 1.52089e-006 5.48125e-006 0 0 -4.37326e-015 -2.96347e-006 -1.52089e-006 -5.48125e-006 -140.88 -21.2832 -170.035 -133.648 69.3878 132.209 -15.3007 -4.55737 -4.25025 -2.23696e-006 2.71265e-007 2.67115e-006 140.891 -21.2999 170.027 133.716 69.3914 -132.282 15.2872 -4.56792 4.2387 7.95139e-016 1.25423e-009 -6.36111e-015 
39.8357 20.0494 3.41305 0.215919 -51.9965 -179.545 -0.218177 12.1321 -0.0946872 -0.430324 24.2646 -0.145933 -0.430324 24.2645 -0.145933 10.2247 -12.0468 2.15446 1.38263e-006 -5.49311 -1.02648e-007 6.23993 -25.8932 -45.7291 92.1507 -23.4662 13.9097 4.35195 -9.10549 11.9767 59.1541 -5.45718 17.1999 7.0955e-007 5.96818e-006 3.68177e-006 4.77083e-015 -3.18055e-015 -3.18055e-015 1.59028e-015 -3.18055e-015 3.18055e-015 7.0955e-007 5.96818e-006 3.68177e-006 -0.0128851 0.00232476 7.68823e-005 -1.59028e-015 0 -7.95139e-015 7.0955e-007 5.96818e-006 3.68177e-006 -0.0160065 0.00298701 0.000845707 -3.18055e-015 -3.18055e-015 -3.97569e-015 7.0955e-007 5.96818e-006 3.68177e-006 -0.0125562 0.0031071 0.00281135 3.18055e-015 0 -7.15625e-015 7.0955e-007 5.96818e-006 3.68177e-006 4.77083e-015 -3.18055e-015 -3.18055e-015 1.59028e-015 -3.18055e-015 3.18055e-015 -4.26096 -25.2291 32.7286 -93.945 -43.5811 -14.8144 -8.08998 -10.8581 -12.8148 -58.9678 -0.616242 -9.06662 -1.58552e-006 -4.06598e-006 -5.41011e-007 -2.47093e-006 -2.14028e-007 2.62292e-006 -4.92784e-007 5.88399e-006 -8.10388e-006 -1.58552e-006 -4.06598e-006 -5.41011e-007 0.0129175 0.00231699 -8.96348e-005 3.18055e-015 1.23878e-006 1.98785e-015 -1.58552e-006 -4.06598e-006 -5.41011e-007 0.016327 0.0030479 -0.00088676 -1.59028e-015 -9.54166e-015 3.97569e-016 -1.58552e-006 -4.06598e-006 -5.41011e-007 0.0146355 0.00369487 -0.00328603 1.59028e-015 6.36111e-015 -1.59028e-015 -1.58552e-006 -4.06598e-006 -5.41011e-007 -2.47093e-006 -2.14028e-007 2.62292e-006 -4.92784e-007 5.88399e-006 -8.10388e-006 -140.882 -21.2832 -170.037 -133.626 69.3949 132.189 -15.2868 -4.6973 -4.2009 -5.96959e-007 -1.47309e-006 2.65645e-006 140.892 -21.2999 170.028 133.693 69.3985 -132.263 15.2729 -4.7083 4.18905 -7.95139e-016 1.0162e-006 -9.54166e-015 
39.8357 20.0494 3.29053 0.215919 -51.9965 -179.545 -0.218017 12.1422 -0.094895 -0.429952 24.2847 -0.146364 -0.429952 24.2847 -0.146364 10.2733 -13.2457 2.37669 -1.31703e-006 -6.3528 -1.15233e-006 6.36289 -25.93 -46.6056 92.0757 -22.5316 13.9385 4.12284 -8.88146 11.9548 59.3825 -5.5987 17.4365 4.77083e-015 3.18055e-015 -1.59028e-015 -4.39297e-006 -1.50644e-006 4.18925e-006 1.02594e-005 -6.0197e-007 -1.01418e-005 4.77083e-015 3.18055e-015 -1.59028e-015 -0.0128471 0.00231827 8.26687e-005 3.42035e-006 -7.94718e-008 -3.38045e-006 4.77083e-015 3.18055e-015 -1.59028e-015 -0.0160465 0.00299011 0.000850409 -4.77083e-015 6.36111e-015 2.38542e-015 4.77083e-015 3.18055e-015 -1.59028e-015 -0.0125632 0.00311969 0.00282541 4.65871e-006 -6.71901e-006 -8.67979e-006 4.77083e-015 3.18055e-015 -1.59028e-015 -4.39297e-006 -1.50644e-006 4.18925e-006 1.02594e-005 -6.0197e-007 -1.01418e-005 -4.35689 -25.2013 33.4236 -93.8598 -42.9582 -14.7846 -8.01397 -10.5251 -12.8051 -59.1013 -0.762676 -9.2925 -2.49304e-006 -3.87866e-006 1.53083e-007 -2.02811e-006 -6.92105e-007 1.04115e-006 3.18055e-015 -1.59028e-014 -3.97569e-016 -2.49304e-006 -3.87866e-006 1.53083e-007 0.0129098 0.0023101 -8.33684e-005 1.59028e-015 3.18055e-015 3.57812e-015 -2.49304e-006 -3.87866e-006 1.53083e-007 0.0163311 0.00303329 -0.000868343 -1.59028e-015 3.18055e-015 -2.38542e-015 -2.49304e-006 -3.87866e-006 1.53083e-007 0.0146025 0.00369272 -0.00327358 -3.18055e-015 6.36111e-015 -7.95139e-016 -2.49304e-006 -3.87866e-006 1.53083e-007 -2.02811e-006 -6.92105e-007 1.04115e-006 3.18055e-015 -1.59028e-014 -3.97569e-016 -140.883 -21.2831 -170.038 -133.603 69.402 132.17 -15.2728 -4.8372 -4.15158 3.48586e-006 1.35891e-006 4.74983e-006 140.894 -21.2998 170.03 133.671 69.4056 -132.243 15.2585 -4.84868 4.13939 3.26122e-006 -1.50827e-006 -6.08942e-008 
39.8357 20.0494 3.16802 0.215919 -51.9965 -179.545 -0.217864 12.1522 -0.0951022 -0.429593 24.3048 -0.146791 -0.429593 24.3047 -0.146791 10.3271 -14.4451 2.60125 -8.45794e-007 -7.21274 -5.46887e-007 6.48516 -25.9685 -47.4818 92.0008 -21.5976 13.9683 3.89397 -8.6574 11.9339 59.6115 -5.73926 17.6737 3.18055e-015 3.18055e-015 2.38542e-015 3.86562e-006 9.33078e-007 4.79166e-006 -1.59028e-015 0 2.38542e-015 3.18055e-015 3.18055e-015 2.38542e-015 -0.0127849 0.00233296 9.75056e-005 -3.18055e-015 0 1.59028e-015 3.18055e-015 3.18055e-015 2.38542e-015 -0.016058 0.00300035 0.000875406 1.59028e-015 -3.18055e-015 5.56597e-015 3.18055e-015 3.18055e-015 2.38542e-015 -0.0126103 0.00311867 0.00283102 1.59028e-015 0 -0 3.18055e-015 3.18055e-015 2.38542e-015 3.86562e-006 9.33078e-007 4.79166e-006 -1.59028e-015 0 2.38542e-015 -4.45313 -25.1746 34.1181 -93.7758 -42.3354 -14.7562 -7.93832 -10.1923 -12.7958 -59.2354 -0.908536 -9.5187 1.59028e-015 6.36111e-015 2.38542e-015 2.49312e-006 2.76322e-006 -1.53194e-007 -4.77083e-015 3.18055e-015 3.97569e-016 1.59028e-015 6.36111e-015 2.38542e-015 0.0129681 0.00231936 -8.91404e-005 -1.59028e-015 3.18055e-015 5.56597e-015 1.59028e-015 6.36111e-015 2.38542e-015 0.0164076 0.00304757 -0.000891051 3.18055e-015 -9.54166e-015 -0 1.59028e-015 6.36111e-015 2.38542e-015 0.0145631 0.00367836 -0.0032708 -1.59028e-015 0 3.57812e-015 1.59028e-015 6.36111e-015 2.38542e-015 2.49312e-006 2.76322e-006 -1.53194e-007 -4.77083e-015 3.18055e-015 3.97569e-016 -140.884 -21.283 -170.04 -133.581 69.409 132.15 -15.2587 -4.97707 -4.10219 7.95139e-016 -8.02198e-008 6.36111e-015 140.895 -21.2997 170.031 133.648 69.4127 -132.224 15.244 -4.98899 4.08967 -1.63075e-006 2.39413e-007 3.4305e-008 
